<?xml version="1.0" encoding="UTF-8" standalone="no"?>
<!DOCTYPE svg PUBLIC "-//W3C//DTD SVG 1.1//EN"
 "http://www.w3.org/Graphics/SVG/1.1/DTD/svg11.dtd">
<!-- Generated by graphviz version 2.43.0 (0)
 -->
<!-- Title: conv Pages: 1 -->
<svg width="1023pt" height="131pt"
 viewBox="0.00 0.00 1023.14 131.00" xmlns="http://www.w3.org/2000/svg" xmlns:xlink="http://www.w3.org/1999/xlink">
<g id="graph0" class="graph" transform="scale(1 1) rotate(0) translate(4 127)">
<title>conv</title>
<polygon fill="white" stroke="transparent" points="-4,4 -4,-127 1019.14,-127 1019.14,4 -4,4"/>
<!-- 192.168.0.1 -->
<g id="node1" class="node">
<title>192.168.0.1</title>
<ellipse fill="none" stroke="black" cx="66.29" cy="-105" rx="66.09" ry="18"/>
<text text-anchor="middle" x="66.29" y="-101.3" font-family="Times,serif" font-size="14.00">192.168.0.1</text>
</g>
<!-- 192.168.0.122 -->
<g id="node2" class="node">
<title>192.168.0.122</title>
<ellipse fill="none" stroke="black" cx="457.29" cy="-18" rx="77.99" ry="18"/>
<text text-anchor="middle" x="457.29" y="-14.3" font-family="Times,serif" font-size="14.00">192.168.0.122</text>
</g>
<!-- 192.168.0.1&#45;&gt;192.168.0.122 -->
<g id="edge1" class="edge">
<title>192.168.0.1&#45;&gt;192.168.0.122</title>
<path fill="none" stroke="black" d="M115.75,-92.88C124.59,-90.91 133.71,-88.89 142.29,-87 228.65,-68.02 328.44,-46.56 392.16,-32.91"/>
<polygon fill="black" stroke="black" points="393.03,-36.31 402.07,-30.79 391.56,-29.46 393.03,-36.31"/>
<text text-anchor="middle" x="294.29" y="-57.8" font-family="Times,serif" font-size="14.00">1</text>
</g>
<!-- 10.209.0.1 -->
<g id="node3" class="node">
<title>10.209.0.1</title>
<ellipse fill="none" stroke="black" cx="211.29" cy="-105" rx="60.39" ry="18"/>
<text text-anchor="middle" x="211.29" y="-101.3" font-family="Times,serif" font-size="14.00">10.209.0.1</text>
</g>
<!-- 10.209.0.1&#45;&gt;192.168.0.122 -->
<g id="edge2" class="edge">
<title>10.209.0.1&#45;&gt;192.168.0.122</title>
<path fill="none" stroke="black" d="M249.19,-90.91C291.22,-76.38 359.24,-52.88 406.01,-36.72"/>
<polygon fill="black" stroke="black" points="407.34,-39.96 415.65,-33.39 405.05,-33.35 407.34,-39.96"/>
<text text-anchor="middle" x="354.29" y="-57.8" font-family="Times,serif" font-size="14.00">1</text>
</g>
<!-- 72.14.242.244 -->
<g id="node4" class="node">
<title>72.14.242.244</title>
<ellipse fill="none" stroke="black" cx="367.29" cy="-105" rx="77.99" ry="18"/>
<text text-anchor="middle" x="367.29" y="-101.3" font-family="Times,serif" font-size="14.00">72.14.242.244</text>
</g>
<!-- 72.14.242.244&#45;&gt;192.168.0.122 -->
<g id="edge3" class="edge">
<title>72.14.242.244&#45;&gt;192.168.0.122</title>
<path fill="none" stroke="black" d="M385.08,-87.21C398.51,-74.52 417.13,-56.93 432.1,-42.79"/>
<polygon fill="black" stroke="black" points="434.68,-45.17 439.55,-35.76 429.88,-40.08 434.68,-45.17"/>
<text text-anchor="middle" x="423.29" y="-57.8" font-family="Times,serif" font-size="14.00">1</text>
</g>
<!-- 74.125.252.219 -->
<g id="node5" class="node">
<title>74.125.252.219</title>
<ellipse fill="none" stroke="black" cx="547.29" cy="-105" rx="83.69" ry="18"/>
<text text-anchor="middle" x="547.29" y="-101.3" font-family="Times,serif" font-size="14.00">74.125.252.219</text>
</g>
<!-- 74.125.252.219&#45;&gt;192.168.0.122 -->
<g id="edge4" class="edge">
<title>74.125.252.219&#45;&gt;192.168.0.122</title>
<path fill="none" stroke="black" d="M529.51,-87.21C516.08,-74.52 497.45,-56.93 482.49,-42.79"/>
<polygon fill="black" stroke="black" points="484.71,-40.08 475.04,-35.76 479.91,-45.17 484.71,-40.08"/>
<text text-anchor="middle" x="513.29" y="-57.8" font-family="Times,serif" font-size="14.00">1</text>
</g>
<!-- 142.250.236.157 -->
<g id="node6" class="node">
<title>142.250.236.157</title>
<ellipse fill="none" stroke="black" cx="739.29" cy="-105" rx="89.88" ry="18"/>
<text text-anchor="middle" x="739.29" y="-101.3" font-family="Times,serif" font-size="14.00">142.250.236.157</text>
</g>
<!-- 142.250.236.157&#45;&gt;192.168.0.122 -->
<g id="edge5" class="edge">
<title>142.250.236.157&#45;&gt;192.168.0.122</title>
<path fill="none" stroke="black" d="M691.78,-89.68C642.23,-74.74 564.65,-51.36 512.44,-35.62"/>
<polygon fill="black" stroke="black" points="513.26,-32.21 502.67,-32.68 511.24,-38.91 513.26,-32.21"/>
<text text-anchor="middle" x="620.29" y="-57.8" font-family="Times,serif" font-size="14.00">1</text>
</g>
<!-- 142.250.196.68 -->
<g id="node7" class="node">
<title>142.250.196.68</title>
<ellipse fill="none" stroke="black" cx="931.29" cy="-105" rx="83.69" ry="18"/>
<text text-anchor="middle" x="931.29" y="-101.3" font-family="Times,serif" font-size="14.00">142.250.196.68</text>
</g>
<!-- 142.250.196.68&#45;&gt;192.168.0.122 -->
<g id="edge6" class="edge">
<title>142.250.196.68&#45;&gt;192.168.0.122</title>
<path fill="none" stroke="black" d="M869.77,-92.72C859.27,-90.8 848.47,-88.84 838.29,-87 729.61,-67.37 603.42,-44.91 527.01,-31.35"/>
<polygon fill="black" stroke="black" points="527.49,-27.88 517.03,-29.58 526.26,-34.78 527.49,-27.88"/>
<text text-anchor="middle" x="743.79" y="-57.8" font-family="Times,serif" font-size="14.00">14</text>
</g>
</g>
</svg>
